<svg xmlns="http://www.w3.org/2000/svg" xml:space="preserve" width="1500" height="269" data-id="lg_8mnJsBHlxtuazl3MI7" data-version="1" viewBox="0 0 1500 269"><g data-padding="20"><g transform="translate(10 4.804)scale(.96429)"><rect width="429.352" height="118.627" x="152.104" y="-324.814" fill="none" rx="0" ry="0" transform="translate(465.82 400.16)"/><path d="M646.81 119.09v7.25h-5.57v-7.25q0-6.55-2.87-9.25t-10.93-2.76v19.26h-5.45v-40.6h5.45v16.53q4.29.12 5.1.23l8.18-16.76h5.92l-9.17 18.04q9.34 3.42 9.34 15.31m13.92-20.59v27.84h-5.1v-22.97h-4.76l2.32-4.87Zm-5.33-5.8q-.76-.99-.76-2.15t.76-2.11q.75-.96 2.32-.96 1.56 0 2.32.96.75.95.75 2.11t-.75 2.12q-.76.96-2.32.96-1.57 0-2.32-.93m15.37 10.67h-5.17l10.39-10.38v5.51h7.83v4.87h-7.83v11.95q0 2.03.66 3.36.67 1.34 1.95 1.89 1.27.55 2.4.72 1.13.18 2.82.18v4.87q-6.67 0-9.86-2.55t-3.19-8.47Zm37.57 16.88 3.48 3.42q-4 3.25-9.16 3.25-6.44 0-10.33-4.15-3.88-4.14-3.88-10.35 0-6.09 4.09-10.29 4.08-4.21 10.12-4.21 5.16 0 9.16 3.25l-3.42 3.48q-2.44-1.86-5.74-1.86-4.01 0-6.35 2.64-2.35 2.64-2.35 6.99t2.35 6.99q2.34 2.64 6.35 2.64 3.36 0 5.68-1.8m8.42-34.51h5.1V98.5h4.93q6.44 0 9.23 1.91 2.49 1.69 3.16 4.04.66 2.34.66 6.17v15.72h-5.1v-15.66q0-1.04-.06-1.77-.06-.72-.4-1.85-.35-1.14-.99-1.86-.64-.73-1.86-1.28-1.21-.55-2.95-.55h-6.62v22.97h-5.1Zm43.67 12.18q9.86.41 9.86 8.18 0 9.68-12.7 9.68h-2.38v-4.46H758q3.88 0 5.39-1.19t1.51-3.97q0-1.8-1.33-2.7-1.34-.9-3.43-.9-4.11 0-6.46 2.9t-2.35 6.96q0 4.29 2.52 6.96t6.58 2.67q3.66 0 5.98-1.8l3.48 3.42q-4 3.25-9.46 3.25-6.61 0-10.55-3.89-3.95-3.88-3.95-10.03 0-6.84 3.89-11.08 3.89-4.23 10.61-4m15.95 28.42V98.5h10.04q6.44 0 9.22 1.91 2.49 1.69 3.16 4.04.67 2.34.67 6.17v15.72h-5.11v-15.66q0-1.04-.05-1.77-.06-.72-.41-1.85-.35-1.14-.99-1.86-.63-.73-1.85-1.28t-2.96-.55h-6.61v22.97Zm-129.57 45.84v7.25h-5.57v-7.25q0-6.56-2.87-9.25-2.87-2.7-10.93-2.76v19.26h-5.45v-40.6h5.45v16.53q4.29.11 5.1.23l8.18-16.76h5.92l-9.17 18.04q9.34 3.42 9.34 15.31m10.61 7.25h-5.11v-15.84q0-6.67 2.5-9.22 1.21-1.27 2.95-1.91t3.05-.76q1.3-.11 3.57-.11h5.1v4.87h-6.15q-1.16 0-1.8.06-.63.06-1.5.4-.87.35-1.51 1.11-1.1 1.39-1.1 5.56Zm31.33-16.36v5.22q-2.21-1.68-5.4-1.68-2.72 0-4.23 1.07-1.51 1.08-1.51 3.05 0 3.83 5.68 3.83h7.66v-11.08q0-7.02-6.84-7.02h-9.28v-4.87h9.57q5.62 0 8.64 2.78 3.01 2.79 3.01 8.01v17.05h-12.93q-4.93 0-7.83-2.21-2.9-2.2-2.9-6.43 0-4.24 3.07-6.44 3.08-2.21 7.72-2.21 2.61 0 5.57.93m27.36-11.48v4.87h-6.67v22.97h-5.22v-22.97h-3.94l2.32-4.87h1.62q0-5.92 4-9.37 4.01-3.45 10.21-3.45v4.87q-8.99 0-8.99 7.95Zm6.9 4.87h-5.16l10.38-10.38v5.51h7.83v4.87h-7.83v11.95q0 2.03.67 3.36.67 1.34 1.94 1.89 1.28.55 2.41.72 1.13.18 2.81.18v4.87q-6.67 0-9.86-2.55-3.19-2.56-3.19-8.47Zm55.46 17.86v5.11h-23.08v-30.92q0-4.29 2.72-6.9 1.86-1.74 4.18-2.26t5.68-.52h10.5v5.1h-11.25q-6.38 0-6.38 5.34v6.61h13.4v5.1h-13.4v13.34Zm33.64-8.81v27.14h-5.22v-27.14q0-9.63-8.99-9.63-2.09 0-3.74.72-1.65.73-2.81 2.01-1.16 1.27-1.8 3.04t-.64 3.86.64 3.85q.64 1.77 1.8 3.05t2.81 2q1.65.73 3.74.73 3.83 0 6.73-2.09v5.22q-3.13 1.74-6.73 1.74-3.07 0-5.65-1.13t-4.5-3.11q-1.91-1.97-2.98-4.61-1.08-2.64-1.08-5.65 0-3.02 1.1-5.69 1.11-2.66 3.02-4.61 1.91-1.94 4.52-3.07t5.57-1.13q3.13 0 5.74.9t4.5 2.72q1.88 1.83 2.93 4.56 1.04 2.72 1.04 6.32m29.23-13.92v27.84h-10.03q-6.44 0-9.22-1.92-2.5-1.68-3.16-4.03-.67-2.35-.67-6.17v-15.72h5.1v15.66q0 1.04.06 1.77.06.72.41 1.85t.98 1.86q.64.72 1.86 1.27 1.22.56 2.96.56h6.61v-22.97Zm14.79 0v27.84h-5.1v-22.97h-4.76l2.32-4.87Zm-5.33-5.8q-.76-.99-.76-2.15t.76-2.12q.75-.95 2.32-.95 1.56 0 2.32.95.75.96.75 2.12t-.75 2.12q-.76.96-2.32.96-1.57 0-2.32-.93m18.33 46.86h-5.22v-27.14q0-3.02 1.1-5.69 1.1-2.66 3.01-4.61 1.92-1.94 4.53-3.07t5.57-1.13q2.95 0 5.54 1.13 2.58 1.13 4.52 3.1t3.04 4.61q1.11 2.64 1.11 5.66 0 3.01-1.08 5.65-1.07 2.64-2.98 4.61-1.92 1.98-4.53 3.11t-5.62 1.13q-3.72 0-6.91-1.74v-5.22q2.85 2.09 6.73 2.09 2.09 0 3.8-.73 1.71-.72 2.9-2t1.83-3.05q.64-1.76.64-3.85t-.64-3.86-1.8-3.04q-1.16-1.28-2.81-2.01-1.66-.72-3.74-.72-2.03 0-3.69.7-1.65.69-2.84 1.97-1.19 1.27-1.83 3.04-.63 1.77-.63 3.92Zm29.58-13.22v-27.84h25.57q4.12 0 6.56 1.56 2.49 1.57 3.28 4.06.78 2.5.78 5.98v16.24h-5.11v-16.24q0-4.53-2.72-5.98-1.39-.75-5.63-.75h-2.38v22.97h-5.1v-22.97h-10.15v22.97Zm56.78-28.42q9.86.4 9.86 8.18 0 9.68-12.7 9.68h-2.38v-4.46h2.78q3.89 0 5.4-1.19 1.5-1.19 1.5-3.98 0-1.79-1.33-2.69t-3.42-.9q-4.12 0-6.47 2.9t-2.35 6.96q0 4.29 2.53 6.96 2.52 2.67 6.58 2.67 3.65 0 5.97-1.8l3.48 3.42q-4 3.25-9.45 3.25-6.61 0-10.56-3.89-3.94-3.88-3.94-10.03 0-6.85 3.88-11.08 3.89-4.23 10.62-4m15.95 28.42v-27.84h10.03q6.44 0 9.22 1.91 2.5 1.68 3.17 4.03.66 2.35.66 6.18v15.72h-5.1v-15.66q0-1.05-.06-1.77-.06-.73-.41-1.86-.34-1.13-.98-1.85-.64-.73-1.86-1.28t-2.96-.55h-6.61v22.97Zm32.3-22.97h-5.16l10.38-10.38v5.51h7.83v4.87h-7.83v11.95q0 2.03.67 3.36.67 1.34 1.94 1.89 1.28.55 2.41.72 1.13.18 2.81.18v4.87q-6.67 0-9.86-2.55-3.19-2.56-3.19-8.47Zm27.6-4.87h10.27v4.87h-10.27q-1.68 0-2.9.64t-1.22 1.8q0 .69.29 1.24t.67.9 1.16.73q.78.37 1.22.52l3.68 1.19q3.25 1.04 4.82 1.74 1.56.69 2.4 1.88t1.08 2.32q.23 1.13.23 2.24 0 7.77-10.67 7.77h-10.04v-4.87h10.04q5.45 0 5.45-2.9 0-1.4-1.6-2.32-1.59-.93-3.88-1.57t-4.58-1.48q-2.3-.84-3.89-2.73-1.6-1.88-1.6-4.66 0-3.54 2.73-5.43 2.73-1.88 6.61-1.88"/><path fill="#ff4136" d="M756.543 52.587V-.003H487.538v269.006h269.005v-52.59h-4.38v48.21H491.917V4.376h260.245v48.21Z"/></g><path fill="transparent" stroke="transparent" d="M470 0h560v269H470z"/></g></svg>